<?xml version="1.0" encoding="UTF-8" standalone="no"?>
<!-- Created with Inkscape (http://www.inkscape.org/) -->

<svg
   width="1800pt"
   height="1800pt"
   viewBox="0 0 1800 1800"
   version="1.1"
   id="svg432"
   sodipodi:docname="favicon.inkscape.svg"
   inkscape:version="1.2.2 (b0a8486541, 2022-12-01)"
   inkscape:export-filename="favicon.inkscape.png"
   inkscape:export-xdpi="12"
   inkscape:export-ydpi="12"
   xmlns:inkscape="http://www.inkscape.org/namespaces/inkscape"
   xmlns:sodipodi="http://sodipodi.sourceforge.net/DTD/sodipodi-0.dtd"
   xmlns="http://www.w3.org/2000/svg"
   xmlns:svg="http://www.w3.org/2000/svg">
  <sodipodi:namedview
     id="namedview434"
     pagecolor="#000000"
     bordercolor="#ff00ff"
     borderopacity="1"
     inkscape:showpageshadow="0"
     inkscape:pageopacity="0"
     inkscape:pagecheckerboard="true"
     inkscape:deskcolor="#000000"
     inkscape:document-units="pt"
     showgrid="true"
     showguides="true"
     inkscape:zoom="0.14236674"
     inkscape:cx="1022.0084"
     inkscape:cy="723.48359"
     inkscape:window-width="1920"
     inkscape:window-height="1008"
     inkscape:window-x="0"
     inkscape:window-y="0"
     inkscape:window-maximized="1"
     inkscape:current-layer="layer3">
    <inkscape:grid
       type="xygrid"
       id="grid553"
       spacingx="27"
       spacingy="27"
       units="pt"
       empspacing="9"
       dotted="false"
       empcolor="#00ffff"
       empopacity="0.10196078"
       color="#00ffff"
       opacity="0.10196078"
       visible="true"
       originx="0"
       originy="0" />
  </sodipodi:namedview>
  <defs
     id="defs429" />
  <g
     inkscape:groupmode="layer"
     id="layer2"
     inkscape:label="bg"
     style="display:inline"
     sodipodi:insensitive="true">
    <rect
       style="font-variation-settings:'wdth' 100, 'wght' 447;display:none;fill:#ff00ff;fill-opacity:1;stroke:#0000ff;stroke-width:2.96957;stroke-dasharray:none;stroke-opacity:1;paint-order:normal"
       id="rect4178"
       width="1800"
       height="1800"
       x="5.6843419e-14"
       y="5.6843419e-14" />
    <circle
       style="fill:#0002ff;fill-opacity:1;stroke:none;stroke-width:0.925924;stroke-linecap:round;stroke-linejoin:bevel"
       id="path1830"
       cx="900"
       cy="900"
       r="900" />
  </g>
  <g
     inkscape:groupmode="layer"
     id="layer3"
     inkscape:label="content">
    <path
       id="path15061-3"
       style="color:#000000;fill:#ffffff;fill-opacity:1;stroke:none;stroke-width:15;stroke-opacity:1;-inkscape-stroke:none"
       d="m 962.09499,525.42413 -0.047,0.53666 c -144.15259,3.001 -299.21361,97.56368 -299.21361,97.56368 l -23.711,14.253 23.73533,14.23334 c 0.0333,0.0333 45.03134,26.05367 105.75202,51.13267 -21.13634,12.30567 -41.99801,24.79634 -61.34268,37.39267 -33.62034,21.89267 -62.70334,43.22101 -89.29201,63.27134 -0.16,-33.685 -12.26767,-67.34767 -37.86634,-92.92934 -41.503,-41.48334 -102.25734,-60.41468 -152.27535,-70.96234 -50.10434,-10.56534 -91.21101,-11.92367 -91.21101,-11.92367 l -27.60233,-0.942 1.02566,27.588 c 0,0 1.458,41.12801 12.01667,91.22068 10.58634,50.011 29.49967,110.72168 70.89834,152.09935 5.02834,5.03067 10.76,8.84 16.35767,12.886 -5.599,4.04767 -11.32533,7.84967 -16.35767,12.88067 -41.39834,41.37767 -60.316,102.08736 -70.89834,152.09966 -10.605,50.0997 -12.01667,91.2647 -12.01667,91.2647 l -1.02566,27.544 27.60233,-0.9177 c 0,0 41.10734,-1.3587 91.21101,-11.9237 50.01768,-10.5473 110.77202,-29.4833 152.27535,-70.967 25.64534,-25.6323 37.75801,-59.3673 37.86634,-93.12 26.701,20.1067 55.90101,41.4924 89.67768,63.4621 36.55,23.7733 77.42334,47.1873 119.73135,68.8083 -20.64034,10.1823 -41.56234,21.1963 -41.56234,21.1963 l -24.09667,14.292 24.116,14.253 c 0,0 116.57693,70.686 223.96994,70.6883 32.582,4e-4 62.3963,-8.2056 85.0976,-22.6073 6.321,-4.0103 11.7787,-8.8363 16.8894,-13.8913 3.7046,0.097 7.4036,0.17 11.0986,0.17 89.1367,0 179.6947,-35.463 249.2434,-93.0374 69.5683,-57.591 118.838,-138.7663 118.838,-230.1953 0,-91.42934 -49.2697,-172.58868 -118.838,-230.18069 -69.5487,-57.57401 -160.1067,-93.05668 -249.2434,-93.05668 -2.251,0 -4.4316,0.0667 -6.626,0.11 -8.7653,-11.96233 -19.5486,-22.95033 -33.037,-31.626 -30.149,-19.39234 -70.2486,-30.65767 -114.21861,-30.65934 z m 6.924,33.252 c 38.18501,0.001 72.56701,10.15367 96.24001,25.381 3.4967,2.24734 5.7187,4.89367 8.721,7.30934 -92.99261,10.12633 -185.76501,46.37167 -268.72087,90.96701 -44.25367,-16.52834 -78.02168,-33.58201 -98.52535,-44.59967 43.63301,-23.43301 157.50989,-79.06268 262.28521,-79.05768 z m 165.04371,81.27934 c 71.9764,2.866 147.7034,32.75167 205.22,80.36601 60.5074,50.09001 100.1904,117.68735 100.1904,190.54202 0,72.85434 -39.6827,140.428 -100.1904,190.5177 -57.6543,47.728 -133.6026,77.64 -205.7327,80.3856 -1.5236,-24.287 -17.056,-44.944 -38.701,-58.6766 -22.7033,-14.403 -52.5123,-22.606 -85.0976,-22.6074 -40.99441,0 -82.83171,10.4554 -119.33111,23.12 -54.95682,-24.8983 -107.80716,-55.0669 -154.71184,-85.5759 -79.392,-51.64006 -139.33734,-101.42339 -169.08201,-127.20706 29.67267,-25.78767 89.44867,-75.52335 168.71568,-127.13868 30.113,-19.60901 62.78701,-39.06201 96.79701,-57.11934 43.43316,13.439 90.77656,23.52466 136.86026,23.52533 43.96931,0.002 84.07201,-11.26833 114.21861,-30.659 29.5097,-18.98034 49.9264,-47.02534 50.8447,-79.47268 z m -33.7207,0.41 c -1.0596,18.518 -12.4703,36.54567 -35.1073,51.10834 -23.668,15.22334 -58.0323,25.36834 -96.21571,25.36634 h -0.033 c -30.0413,-3.4e-4 -60.9523,-5.414 -91.1277,-12.69034 72.7487,-34.187 149.61471,-59.37367 222.47041,-63.78434 z m -735.87859,42.03134 c 14.23567,1.44433 30.26501,3.13967 52.74901,7.88067 45.35134,9.56367 98.06334,28.58 126.48901,56.99234 31.81801,31.804 31.81801,82.49301 0,114.29701 -14.72133,14.71434 -33.46433,22.52 -52.55367,23.61334 -1.54633,-0.0667 -3.087,-0.0833 -4.619,-0.0833 -1.563,0 -3.102,0.0333 -4.61933,0.0833 -19.08867,-1.093 -37.83134,-8.89867 -52.55368,-23.61334 -28.27133,-28.25867 -47.31767,-80.97268 -56.919,-126.34768 -4.77267,-22.527 -6.51334,-38.569 -7.97334,-52.82234 z m 878.40799,84.89234 c -44.6333,0 -81.118,36.48834 -81.118,81.09401 0,44.60534 36.484,81.06935 81.118,81.06935 44.6323,0 81.1427,-36.46401 81.1427,-81.06935 0,-44.60567 -36.5107,-81.09401 -81.1427,-81.09401 z m 0,33.25201 c 26.665,0 47.871,21.19367 47.871,47.842 0,26.64867 -21.206,47.82234 -47.871,47.82234 -26.665,0 -47.8517,-21.17367 -47.8517,-47.82234 0,-26.64833 21.1867,-47.842 47.8517,-47.842 z M 481.95343,936.50317 c 3.05033,0.11 6.09066,0.11 9.131,0 19.10967,1.079 37.85933,8.90834 52.59767,23.63801 31.81834,31.80367 31.818,82.49302 0,114.29672 -28.42634,28.4126 -81.11901,47.4046 -126.46968,56.9676 -22.484,4.7417 -38.51334,6.461 -52.74901,7.9053 1.43534,-14.23 3.19734,-30.2793 7.97334,-52.8223 9.60433,-45.3753 28.64767,-98.08899 56.919,-126.34732 14.73701,-14.73034 33.48701,-22.55701 52.59768,-23.63801 z m 527.75397,197.20733 h 0.067 0.033 0.033 c 26.8767,7e-4 51.0273,7.1343 67.2657,17.4363 14.223,9.0234 20.643,19.4327 22.3436,29.7657 -51.483,-3.2543 -104.91261,-17.3737 -157.72931,-37.2853 22.5887,-5.591 45.679,-9.9087 68.01271,-9.9167 z m -144.2824,35.366 c 61.23599,28.1667 126.11569,49.8423 191.3624,59.297 -13.8387,5.0383 -29.298,8.8043 -46.9727,8.8037 -68.28131,0 -141.59041,-33.37 -178.30057,-51.9677 9.77034,-4.948 19.521,-9.9673 33.91087,-16.133 z"
       inkscape:label="fish" />
  </g>
</svg>
